<?xml version="1.0" standalone="no"?><!DOCTYPE svg PUBLIC "-//W3C//DTD SVG 20010904//EN"
 "http://www.w3.org/TR/2001/REC-SVG-20010904/DTD/svg10.dtd"><svg xmlns="http://www.w3.org/2000/svg" version="1.0" viewBox="0 0 200 200"><path d="M94.5 29.2c-12.1 5.4-22.3 10.3-22.8 10.7-.8.8 45.1 21.8 46.8 21.3 4.1-1.1 46.3-20.8 45.7-21.3-1.2-1.1-45.8-20.9-46.8-20.8-.5 0-10.8 4.6-22.9 10.1zm26.4 9.7c1.3 2.4-.8 5.5-3.4 5-2.3-.5-4-3.2-3.2-5.3.9-2.2 5.4-2 6.6.3z"/><path d="M116.7 38.6c-1.4 1.4-.7 3.5 1.1 3.2.9-.2 1.7-1 1.7-1.7 0-1.6-1.8-2.5-2.8-1.5zM76.7 45.7c-.4.3-.7 4.5-.7 9.2.1 7.8.2 8.4 1.5 6.7 1.5-2 1.5-2 3 0 1.4 1.7 1.5 1.2 1.2-6-.2-6.7-.5-8.1-2.3-9.2-1.1-.8-2.4-1.1-2.7-.7zM91 73.3v21.4l25.8 7.1c14.2 4 26.4 7.2 27 7.2.9 0 1.2-7.3 1.2-28.5 0-15.7-.4-28.5-.8-28.5-.5 0-6.2 2.5-12.8 5.5-6.5 3-12.6 5.5-13.5 5.5-.9 0-7.1-2.5-13.7-5.5-6.7-3-12.4-5.5-12.7-5.5-.3 0-.5 9.6-.5 21.3zm46-2.3c0 .6-7 1-19 1s-19-.4-19-1 7-1 19-1 19 .4 19 1zm-14.5 5c.4.6-3.7 1-11.4 1-7.4 0-12.1-.4-12.1-1s4.5-1 11.4-1c6.6 0 11.7.4 12.1 1zm14.5 5c0 .6-7 1-19 1s-19-.4-19-1 7-1 19-1 19 .4 19 1zm-29 5c0 .5-2 1-4.5 1s-4.5-.5-4.5-1c0-.6 2-1 4.5-1s4.5.4 4.5 1zM30 106c0 1.6.7 2 3 2h3v74h5v-74h3c2.3 0 3-.4 3-2 0-1.8-.7-2-8.5-2s-8.5.2-8.5 2zM91 141.5c0 36.2.1 37.6 2 39.5 3.1 3.1 10.2 2.8 12.9-.6 2-2.6 2.1-3.8 2.1-39.5V104h-6l-.2 37.2c-.3 35.6-.4 37.3-2.2 37.6-1 .2-2.2-.2-2.7-1-.5-.7-.9-17.6-.9-37.6V104h-5v37.5zM52 147.5V182h5v-34h6v34h6v-69h-6v31h-6v-31h-5v34.5zM75 147.5V182h5.5c4.8 0 5.5-.3 5.5-1.9 0-1.4-.8-2.1-2.7-2.3l-2.8-.3-.3-15.3-.3-15.2H83c2.3 0 3-.4 3-2s-.7-2-3-2h-3v-26h3c2.3 0 3-.4 3-2 0-1.8-.7-2-5.5-2H75v34.5zM114 147.5V182h5l.1-18.8.1-18.7 3.7 18.5c3.4 16.9 3.9 18.5 5.9 18.8l2.2.3V113h-5l-.1 19.7-.1 19.8-3.4-17.5c-1.9-9.6-3.7-18.5-3.9-19.8-.3-1.4-1.3-2.2-2.5-2.2-2 0-2 .8-2 34.5zM138 147.5V182h5v-69h-5v34.5z"/></svg>